<?xml version="1.0" encoding="UTF-8" standalone="no"?>
<svg xmlns="http://www.w3.org/2000/svg" xmlns:xlink="http://www.w3.org/1999/xlink" data-name="Layer 1" id="Layer_1" viewBox="0 0 1600 900">
  <defs>
    <style>
      .cls-1 {
        fill: url(#linear-gradient);
      }

      .cls-1, .cls-2, .cls-3, .cls-4, .cls-5 {
        stroke-width: 0px;
      }

      .cls-2 {
        fill: url(#linear-gradient-4);
      }

      .cls-3 {
        fill: url(#linear-gradient-2);
      }

      .cls-4 {
        fill: url(#linear-gradient-3);
      }

      .cls-5 {
        fill: url(#linear-gradient-5);
      }
    </style>
    <linearGradient gradientUnits="userSpaceOnUse" id="linear-gradient" x1="526.35" x2="1072.99" y1="352.45" y2="352.45">
      <stop offset="0" stop-color="#2cb5b6"/>
      <stop offset=".57" stop-color="#42e9ac"/>
      <stop offset=".71" stop-color="#43e9ac"/>
      <stop offset=".75" stop-color="#4beaae"/>
      <stop offset=".82" stop-color="#64efb4"/>
      <stop offset=".91" stop-color="#8bf6be"/>
      <stop offset="1" stop-color="#bbffcb"/>
    </linearGradient>
    <linearGradient id="linear-gradient-2" xlink:href="#linear-gradient" y1="284.67" y2="284.67"/>
    <linearGradient gradientUnits="userSpaceOnUse" id="linear-gradient-3" x1="582.61" x2="1016.74" y1="767.74" y2="333.62">
      <stop offset=".19" stop-color="#2c3239"/>
      <stop offset=".65" stop-color="#484d53"/>
      <stop offset="1" stop-color="#61656a"/>
    </linearGradient>
    <linearGradient id="linear-gradient-4" x1="691.34" x2="908.01" xlink:href="#linear-gradient" y1="608.38" y2="608.38"/>
    <linearGradient id="linear-gradient-5" x1="754.97" x2="844.38" xlink:href="#linear-gradient-3" y1="608.38" y2="608.38"/>
  </defs>
  <rect class="cls-1" height="39.56" width="546.64" x="526.35" y="332.67"/>
  <rect class="cls-3" height="60.69" width="546.64" x="526.35" y="254.32"/>
  <path class="cls-4" d="M526.35,389.87v208.4c0,150.95,122.37,273.32,273.32,273.32h0c150.95,0,273.32-122.37,273.32-273.32v-208.4h-546.64ZM799.67,751.74c-79.17,0-143.36-64.18-143.36-143.36s64.18-143.36,143.36-143.36,143.36,64.18,143.36,143.36-64.18,143.36-143.36,143.36Z"/>
  <path class="cls-2" d="M799.67,500.05c-59.83,0-108.33,48.5-108.33,108.33s48.5,108.33,108.33,108.33,108.33-48.5,108.33-108.33-48.5-108.33-108.33-108.33ZM799.67,685.98c-42.85,0-77.59-34.74-77.59-77.59s34.74-77.59,77.59-77.59,77.59,34.74,77.59,77.59-34.74,77.59-77.59,77.59Z"/>
  <path class="cls-5" d="M799.67,563.68c-3.48,0-6.84.44-10.09,1.19,10.91,3.37,18.84,13.52,18.84,25.54,0,14.76-11.97,26.72-26.72,26.72-12.01,0-22.17-7.93-25.54-18.84-.75,3.25-1.19,6.62-1.19,10.09,0,24.69,20.01,44.7,44.7,44.7s44.7-20.01,44.7-44.7-20.01-44.7-44.7-44.7Z"/>
</svg>
